<svg width="30" height="30" viewBox="0 0 30 30" fill="none" xmlns="http://www.w3.org/2000/svg">
<circle cx="15" cy="15" r="15" fill="#1E1E1E"/>
<path d="M15.5441 7C15.4023 7.00001 15.2664 7.05625 15.166 7.15638C15.0657 7.25651 15.0092 7.39234 15.0089 7.53408C15.0089 7.53408 15.003 10.1429 14.9974 12.7579C14.9946 14.0653 14.9912 15.3741 14.9891 16.3595C14.987 17.3449 14.9859 17.9684 14.9859 18.0203C14.9859 18.9917 14.1037 19.7856 13.0984 19.7856C12.101 19.7856 11.3048 18.9884 11.3048 17.991C11.3048 16.9937 12.101 16.1975 13.0984 16.1975C13.1321 16.1975 13.2002 16.2086 13.3168 16.2226C13.392 16.2316 13.4682 16.2246 13.5404 16.2019C13.6127 16.1793 13.6793 16.1416 13.7359 16.0913C13.7925 16.0411 13.8378 15.9793 13.8688 15.9103C13.8998 15.8412 13.9158 15.7663 13.9157 15.6906V13.4424C13.9157 13.3063 13.8638 13.1753 13.7706 13.0761C13.6774 12.9769 13.5499 12.9169 13.414 12.9084C13.3306 12.9031 13.2257 12.8927 13.0984 12.8927C10.2892 12.8927 8 15.1819 8 17.991C8 20.8002 10.2892 23.0894 13.0984 23.0894C15.9074 23.0894 18.1967 20.8002 18.1967 17.991V13.1488C18.9751 13.7713 19.9452 14.1657 21.0166 14.1657C21.1627 14.1657 21.3017 14.157 21.4346 14.1448C21.5675 14.1325 21.691 14.0711 21.7809 13.9725C21.8709 13.8739 21.9207 13.7452 21.9207 13.6118V11.1128C21.9207 10.9775 21.8696 10.8472 21.7775 10.7481C21.6853 10.649 21.5591 10.5885 21.4242 10.5787C19.7414 10.4579 18.4 9.14705 18.2249 7.47973C18.2112 7.34816 18.1493 7.22632 18.051 7.13773C17.9528 7.04914 17.8252 7.00008 17.6929 7H15.5441ZM16.0781 8.07026H17.2989C17.6878 9.83548 19.0672 11.1817 20.8504 11.5193V13.0526C19.7058 12.9945 18.7005 12.4235 18.1089 11.5235C18.0456 11.4272 17.9529 11.3539 17.8447 11.3145C17.7364 11.2751 17.6182 11.2716 17.5078 11.3048C17.3975 11.3379 17.3007 11.4057 17.232 11.4983C17.1633 11.5908 17.1263 11.703 17.1264 11.8182V17.991C17.1264 20.2217 15.3291 22.0191 13.0984 22.0191C10.8677 22.0191 9.07026 20.2217 9.07026 17.991C9.07026 15.8502 10.7403 14.151 12.8454 14.0142V15.1785C11.3933 15.3136 10.2346 16.5051 10.2346 17.991C10.2346 19.5666 11.5228 20.8559 13.0984 20.8559C14.6659 20.8559 16.0562 19.6218 16.0562 18.0203C16.0562 18.0465 16.0572 17.347 16.0593 16.3616C16.0614 15.3762 16.0649 14.0674 16.0677 12.7599C16.0727 10.4124 16.0772 8.52469 16.0781 8.07026Z" fill="white" stroke="#1E1E1E" stroke-width="0.4"/>
<path d="M15.5 18.5V7.5H17.5C18 10 20 10.5 21 11L21.5 13.5L19 13L17.5 12V18C17.5 22 13.5 22.5 13 22.5C12.5 22.5 8.5 21.5 8.5 18C8.5 15.2 11.5 13.8333 13 13.5L13.5 15.5C11.9 15.5 10.6667 17.1667 10.5 18C10.6667 18.8333 11.4 20.5 13 20.5C14.6 20.5 15.3333 19.1667 15.5 18.5Z" fill="white"/>
</svg>
