<svg width="1306" height="680" viewBox="0 0 1306 680" fill="none" xmlns="http://www.w3.org/2000/svg">
<path d="M602.835 493.521L507.06 488.357C505.652 488.357 504.713 487.418 504.713 486.009L502.835 452.676C502.835 451.267 501.426 449.859 499.548 450.328L332.881 487.887C331.472 488.357 330.064 486.948 329.595 485.54L327.717 452.676C327.717 451.267 326.308 449.859 324.43 450.328L157.763 487.887C156.354 488.357 154.946 486.948 154.476 485.54L152.598 452.676C152.598 451.267 151.19 449.859 149.312 450.328L2.83249 483.662C0.0155743 484.131 0.48506 488.826 3.30197 488.826L94.3822 489.296C95.7906 489.296 96.7296 490.235 96.7296 491.643L99.077 530.61C99.077 532.019 100.486 533.427 102.363 532.958L271.848 494.93L273.726 530.61C273.726 532.019 275.134 533.427 277.012 532.958L446.496 494.93L448.374 530.61C448.374 532.019 449.783 533.427 451.661 532.958L603.305 498.685C606.122 498.216 605.652 493.991 602.835 493.521Z" fill="#FF5242"/>
<path d="M602.834 640.471L507.059 635.307C505.651 635.307 504.712 634.368 504.712 632.96L502.834 599.626C502.834 598.218 501.425 596.809 499.547 597.279L332.88 634.837C331.471 635.307 330.063 633.898 329.594 632.49L327.716 599.626C327.716 598.218 326.307 596.809 324.429 597.279L157.762 634.837C156.353 635.307 154.945 633.898 154.475 632.49L152.597 599.626C152.597 598.218 151.189 596.809 149.311 597.279L1.89255 630.612C-0.924367 631.082 -0.454881 635.776 2.36203 635.776L93.4423 636.246C94.8507 636.246 95.7897 637.185 95.7897 638.593L98.1371 677.561C98.1371 678.969 99.5456 680.378 101.424 679.908L270.908 641.88L272.786 677.561C272.786 678.969 274.194 680.378 276.072 679.908L445.556 641.88L447.434 677.561C447.434 678.969 448.843 680.378 450.721 679.908L602.365 645.636C606.121 644.697 605.651 640.471 602.834 640.471Z" fill="#FF5242"/>
<path d="M952.132 493.521L856.357 488.357C854.949 488.357 854.01 487.418 854.01 486.009L852.132 452.676C852.132 451.267 850.723 449.859 848.845 450.328L682.178 487.887C680.77 488.357 679.361 486.948 678.892 485.54L677.014 452.676C677.014 451.267 675.605 449.859 673.727 450.328L507.06 487.887C505.651 488.357 504.243 486.948 503.773 485.54L501.896 452.676C501.896 451.267 500.487 449.859 498.609 450.328L352.599 483.662C349.782 484.131 350.252 488.826 353.069 488.826L444.149 489.296C445.557 489.296 446.496 490.235 446.496 491.643L448.844 530.61C448.844 532.019 450.252 533.427 452.13 532.958L621.614 494.93L623.492 530.61C623.492 532.019 624.901 533.427 626.779 532.958L796.263 494.93L798.141 530.61C798.141 532.019 799.549 533.427 801.427 532.958L953.071 498.685C955.419 498.216 955.419 493.991 952.132 493.521Z" fill="#FF5242"/>
<path d="M1301.9 493.521L1206.13 488.357C1204.72 488.357 1203.78 487.418 1203.78 486.009L1201.9 452.676C1201.9 451.267 1200.49 449.859 1198.61 450.328L1031.95 487.887C1030.54 488.357 1029.13 486.948 1028.66 485.54L1026.78 452.676C1026.78 451.267 1025.37 449.859 1023.5 450.328L856.828 487.887C855.419 488.357 854.011 486.948 853.541 485.54L851.663 452.676C851.663 451.267 850.255 449.859 848.377 450.328L700.958 483.662C698.142 484.131 698.611 488.826 701.428 488.826L792.508 489.296C793.917 489.296 794.856 490.235 794.856 491.643L797.203 530.61C797.203 532.019 798.611 533.427 800.489 532.958L969.974 494.93L971.852 530.61C971.852 532.019 973.26 533.427 975.138 532.958L1144.62 494.93L1146.5 530.61C1146.5 532.019 1147.91 533.427 1149.79 532.958L1301.43 498.685C1305.19 498.216 1304.72 493.991 1301.9 493.521Z" fill="#FF5242"/>
<path d="M952.134 640.471L856.358 635.307C854.95 635.307 854.011 634.368 854.011 632.96L852.133 599.626C852.133 598.218 850.725 596.809 848.847 597.279L682.179 634.837C680.771 635.307 679.362 633.898 678.893 632.49L677.015 599.626C677.015 598.218 675.606 596.809 673.729 597.279L507.061 634.837C505.653 635.307 504.244 633.898 503.775 632.49L501.897 599.626C501.897 598.218 500.488 596.809 498.61 597.279L351.192 630.612C348.375 631.082 348.844 635.776 351.661 635.776L442.742 636.246C444.15 636.246 445.089 637.185 445.089 638.593L447.436 677.561C447.436 678.969 448.845 680.378 450.723 679.908L620.207 641.88L622.085 677.561C622.085 678.969 623.494 680.378 625.371 679.908L794.856 641.88L796.734 677.561C796.734 678.969 798.142 680.378 800.02 679.908L951.664 645.636C955.42 644.697 955.42 640.471 952.134 640.471Z" fill="#FF5242"/>
<path d="M1301.9 640.471L1206.13 635.307C1204.72 635.307 1203.78 634.368 1203.78 632.96L1201.9 599.626C1201.9 598.218 1200.49 596.809 1198.61 597.279L1031.95 634.837C1030.54 635.307 1029.13 633.898 1028.66 632.49L1026.78 599.626C1026.78 598.218 1025.37 596.809 1023.5 597.279L856.828 634.837C855.419 635.307 854.011 633.898 853.541 632.49L851.663 599.626C851.663 598.218 850.255 596.809 848.377 597.279L700.958 630.612C698.142 631.082 698.611 635.776 701.428 635.776L792.508 636.246C793.917 636.246 794.856 637.185 794.856 638.593L797.203 677.561C797.203 678.969 798.611 680.378 800.489 679.908L969.974 641.88L971.852 677.561C971.852 678.969 973.26 680.378 975.138 679.908L1144.62 641.88L1146.5 677.561C1146.5 678.969 1147.91 680.378 1149.79 679.908L1301.43 645.636C1305.19 644.697 1304.72 640.471 1301.9 640.471Z" fill="#FF5242"/>
<path d="M702.363 341.877L798.139 347.041C799.547 347.041 800.486 347.98 800.486 349.389L802.364 382.722C802.364 384.131 803.772 385.539 805.65 385.07L972.318 347.511C973.726 347.041 975.135 348.45 975.604 349.858L977.482 382.722C977.482 384.131 978.89 385.539 980.768 385.07L1147.44 347.511C1148.84 347.041 1150.25 348.45 1150.72 349.858L1152.6 382.722C1152.6 384.131 1154.01 385.539 1155.89 385.07L1303.31 351.736C1306.12 351.267 1305.65 346.572 1302.84 346.572L1211.76 346.102C1210.35 346.102 1209.41 345.163 1209.41 343.755L1207.06 304.788C1207.06 303.379 1205.65 301.971 1203.77 302.44L1034.29 340.469L1032.41 304.788C1032.41 303.379 1031 301.971 1029.13 302.44L859.641 340.469L857.763 304.788C857.763 303.379 856.355 301.971 854.477 302.44L702.833 336.713C698.608 337.652 699.077 341.877 702.363 341.877Z" fill="#FF5242"/>
<path d="M702.363 195.399L798.139 200.563C799.547 200.563 800.486 201.502 800.486 202.911L802.364 236.244C802.364 237.653 803.772 239.061 805.65 238.592L972.318 201.033C973.726 200.563 975.135 201.972 975.604 203.38L977.482 236.244C977.482 237.653 978.89 239.061 980.768 238.592L1147.44 201.033C1148.84 200.563 1150.25 201.972 1150.72 203.38L1152.6 236.244C1152.6 237.653 1154.01 239.061 1155.89 238.592L1303.31 205.258C1306.12 204.789 1305.65 200.094 1302.84 200.094L1211.76 199.624C1210.35 199.624 1209.41 198.685 1209.41 197.277L1207.06 158.31C1207.06 156.901 1205.65 155.493 1203.77 155.962L1034.29 193.991L1032.41 158.31C1032.41 156.901 1031 155.493 1029.13 155.962L859.641 193.991L857.763 158.31C857.763 156.901 856.355 155.493 854.477 155.962L702.833 190.235C698.608 191.174 699.077 195.399 702.363 195.399Z" fill="#FF5242"/>
<path d="M702.363 39.5289L798.139 44.6932C799.547 44.6932 800.486 45.6322 800.486 47.0407L802.364 80.3741C802.364 81.7826 803.772 83.1911 805.65 82.7216L972.318 45.1627C973.726 44.6932 975.135 46.1017 975.604 47.5101L977.482 80.3741C977.482 81.7826 978.89 83.1911 980.768 82.7216L1147.44 45.1627C1148.84 44.6932 1150.25 46.1017 1150.72 47.5101L1152.6 80.3741C1152.6 81.7826 1154.01 83.1911 1155.89 82.7216L1303.31 49.3881C1306.12 48.9186 1305.65 44.2237 1302.84 44.2237L1211.76 43.7543C1210.35 43.7543 1209.41 42.8153 1209.41 41.4068L1207.06 2.43952C1207.06 1.03106 1205.65 -0.377395 1203.77 0.0920908L1034.29 38.1204L1032.41 2.43952C1032.41 1.03106 1031 -0.377395 1029.13 0.0920908L859.641 38.1204L857.763 2.43952C857.763 1.03106 856.355 -0.377395 854.477 0.0920908L702.833 34.3645C698.608 34.834 699.077 39.0594 702.363 39.5289Z" fill="#FF5242"/>
<path d="M352.13 341.877L447.905 347.041C449.313 347.041 450.252 347.98 450.252 349.389L452.13 382.722C452.13 384.131 453.539 385.539 455.417 385.07L622.084 347.511C623.493 347.041 624.901 348.45 625.371 349.858L627.249 382.722C627.249 384.131 628.657 385.539 630.535 385.07L797.202 347.511C798.611 347.041 800.019 348.45 800.489 349.858L802.367 382.722C802.367 384.131 803.775 385.539 805.653 385.07L953.072 351.736C955.889 351.267 955.419 346.572 952.602 346.572L861.522 346.102C860.113 346.102 859.174 345.163 859.174 343.755L856.827 304.788C856.827 303.379 855.419 301.971 853.541 302.44L684.056 340.469L682.178 304.788C682.178 303.379 680.77 301.971 678.892 302.44L509.408 340.469L507.53 304.788C507.53 303.379 506.121 301.971 504.243 302.44L352.599 336.713C348.844 337.652 349.313 341.877 352.13 341.877Z" fill="#FF5242"/>
<path d="M352.13 195.399L447.905 200.563C449.313 200.563 450.252 201.502 450.252 202.911L452.13 236.244C452.13 237.653 453.539 239.061 455.417 238.592L622.084 201.033C623.493 200.563 624.901 201.972 625.371 203.38L627.249 236.244C627.249 237.653 628.657 239.061 630.535 238.592L797.202 201.033C798.611 200.563 800.019 201.972 800.489 203.38L802.367 236.244C802.367 237.653 803.775 239.061 805.653 238.592L953.072 205.258C955.889 204.789 955.419 200.094 952.602 200.094L861.522 199.624C860.113 199.624 859.174 198.685 859.174 197.277L856.827 158.31C856.827 156.901 855.419 155.493 853.541 155.962L684.056 193.991L682.178 158.31C682.178 156.901 680.77 155.493 678.892 155.962L509.408 193.991L507.53 158.31C507.53 156.901 506.121 155.493 504.243 155.962L352.599 190.235C348.844 191.174 349.313 195.399 352.13 195.399Z" fill="#FF5242"/>
<path d="M352.129 39.5289L447.904 44.6932C449.312 44.6932 450.251 45.6322 450.251 47.0407L452.129 80.3741C452.129 81.7826 453.538 83.1911 455.415 82.7216L622.083 45.1627C623.491 44.6932 624.9 46.1017 625.369 47.5101L627.247 80.3741C627.247 81.7826 628.656 83.1911 630.534 82.7216L797.201 45.1627C798.61 44.6932 800.018 46.1017 800.487 47.5101L802.365 80.3741C802.365 81.7826 803.774 83.1911 805.652 82.7216L953.07 49.3881C955.887 48.9186 955.418 44.2237 952.601 44.2237L861.521 43.7543C860.112 43.7543 859.173 42.8153 859.173 41.4068L856.826 2.43952C856.826 1.03106 855.417 -0.377395 853.539 0.0920908L684.055 38.1204L682.177 2.43952C682.177 1.03106 680.769 -0.377395 678.891 0.0920908L509.406 38.1204L507.528 2.43952C507.528 1.03106 506.12 -0.377395 504.242 0.0920908L351.659 34.3645C348.842 34.834 349.312 39.0594 352.129 39.5289Z" fill="#FF5242"/>
</svg>
