<svg width="240" height="244" viewBox="0 0 240 244" fill="none" xmlns="http://www.w3.org/2000/svg">
<path d="M35.0015 170.5L25.4015 175.6L31.0015 163.1L28.0015 157.4L6.60156 168.9L9.20154 173.6L21.5015 167L14.3015 183.1L16.2015 186.7L37.5015 175.3L35.0015 170.5Z" fill="#1E1E1E"/>
<path d="M30.3003 186.4C25.3003 191.1 25.1003 199.1 29.9003 204.3C34.7003 209.4 42.7004 209.8 47.7004 205.1C52.7004 200.4 52.9004 192.4 48.1004 187.3C43.3004 182.1 35.4003 181.7 30.3003 186.4ZM43.1004 200.1C40.2004 202.8 36.1003 203 33.9003 200.6C31.6003 198.2 32.1003 194.1 35.0003 191.4C37.8003 188.7 42.0004 188.5 44.2004 190.9C46.5004 193.3 45.9004 197.4 43.1004 200.1Z" fill="#1E1E1E"/>
<path d="M78.7015 209.4C72.4015 206.5 65.0015 209.2 62.1015 215.5C60.0015 220 60.9015 225.1 63.9015 228.7C63.1015 228.7 62.2015 228.8 61.3015 229.2L63.2015 234.2C64.6015 233.6 65.9015 234.8 68.6015 237.7C70.4015 239.6 72.4014 241.8 75.0014 243C76.7014 243.8 78.6015 244.1 80.8015 243.8L79.9015 238.5C77.3015 238.9 75.3014 237.1 72.5014 234.1L71.6015 233.1C77.0015 234 82.6015 231.2 84.9015 226C87.8015 219.7 85.0015 212.3 78.7015 209.4ZM78.9015 223.2C77.3015 226.8 73.5014 228.5 70.5014 227.2C67.5014 225.8 66.5015 221.9 68.1015 218.3C69.7015 214.8 73.5015 213 76.4015 214.3C79.5015 215.6 80.5015 219.6 78.9015 223.2Z" fill="#1E1E1E"/>
<path d="M107.1 230.5C106.5 234.3 105.8 235.9 104.5 236.5C103.8 236.7 102.9 236.7 101.5 236.5C99.4002 236.1 98.0002 235.5 99.0002 229.2L101 216.9L93.6003 215.7L91.6003 228C90.4003 235.5 91.7002 240.3 100.8 241.8C103.2 242.2 104.9 242 106.3 241.5C110.9 240 111.7 235 112.3 231.4L114.3 219.1L109 218.2L107.1 230.5Z" fill="#1E1E1E"/>
<path d="M127.7 218.5L118.9 243.8L124.8 243.2L126.4 238.6L136.4 237.5L138.9 241.7L146.9 240.9L133.2 218L127.7 218.5ZM128.4 232.9L130.4 227.2L133.5 232.3L128.4 232.9Z" fill="#1E1E1E"/>
<path d="M168.501 222.5C169.501 220.5 169.602 218.3 168.802 216.2C168.002 214.1 166.301 212.4 164.001 211.6C162.401 211 159.702 210.6 156.302 211.9L146.602 215.8L155.602 238.3L162.602 235.5L159.802 228.5L161.401 227.8L167.901 233.3L175.501 230.3L167.802 223.7C168.002 223.3 168.301 222.9 168.501 222.5ZM162.401 220.9C162.201 221.5 161.701 221.9 160.901 222.3L157.702 223.6L155.501 218L158.202 216.9C159.202 216.5 161.302 216.4 162.302 218.9C162.602 219.6 162.601 220.3 162.401 220.9Z" fill="#1E1E1E"/>
<path d="M188.7 198.9L185.6 194.5L169.5 206L172.6 210.4L177.6 206.8L188.6 222.2L194.7 217.8L183.7 202.4L188.7 198.9Z" fill="#1E1E1E"/>
<path d="M207 199.2L204.2 196.7L207.3 193.3L204.7 188.1L200.2 193.1L196.9 190.2L202.2 184.2L199.7 179L187.9 192.2L206 208.3L216.3 196.8L213.7 191.6L207 199.2Z" fill="#1E1E1E"/>
<path d="M223 167.5C222.5 165.3 221.1 163.6 219.2 162.5C217.2 161.4 214.8 161.2 212.6 162C211 162.6 208.6 164 206.9 167.2L201.9 176.4L223.2 187.9L226.8 181.3L220.2 177.7L221 176.1L229.5 176.2L233.4 169L223.2 168.9C223.2 168.4 223.1 167.9 223 167.5ZM217.1 172.1L215.5 175.1L210.2 172.2L211.6 169.6C212.1 168.7 213.6 167.3 216 168.5C216.7 168.9 217.2 169.4 217.4 170C217.6 170.7 217.5 171.4 217.1 172.1Z" fill="#1E1E1E"/>
<path d="M26.0007 102.3L17.2008 100.4L18.5007 94.3998L27.4008 96.3998L29.0007 88.9998L5.30078 83.7998L3.70081 91.1998L13.2008 93.2998L11.9008 99.1998L2.40076 97.0999L0.800781 104.5L24.4008 109.7L26.0007 102.3Z" fill="#1E1E1E"/>
<path d="M35.8004 75.4C36.9004 73.2 37.3004 71.6 37.3004 70.1C37.3004 65.2 32.8005 62.9 29.6005 61.2L18.6005 55.5L16.1005 60.2L27.1005 65.9C30.5005 67.7 31.8004 68.8 32.0004 70.2C32.0004 70.9 31.7005 71.8 31.1005 73C30.1005 74.9 29.1004 76 23.4004 73.1L12.4004 67.4L8.90039 74.1L19.9004 79.8C26.6004 83.3 31.6004 83.5 35.8004 75.4Z" fill="#1E1E1E"/>
<path d="M34.5 36L42.5 43.3L28.8 42.2L24.5 47L42.4 63.3L46 59.3L35.6001 49.9L53.3 51.3L56 48.3L38.1001 32L34.5 36Z" fill="#1E1E1E"/>
<path d="M53.9004 26.4L64.3004 42.2L70.6005 38.1L60.2004 22.3L65.4004 18.9L62.4004 14.5L45.9004 25.4L48.8004 29.8L53.9004 26.4Z" fill="#1E1E1E"/>
<path d="M94.1005 27.6999L94.4004 21.8999L84.8004 25.2999L83.6005 21.7999L87.9004 20.2999L88.1005 14.4999L81.8004 16.7999L80.3004 12.5999L89.8004 9.19989L86.0004 4.8999L71.4004 10.0999L79.6005 32.8999L94.1005 27.6999Z" fill="#1E1E1E"/>
<path d="M107.701 25.0999L107.001 17.5999L108.801 17.3999L113.401 24.4999L121.601 23.6999L116.001 15.1999C116.401 14.8999 116.701 14.5999 117.001 14.2999C118.501 12.6999 119.201 10.4999 119.001 8.29991C118.801 6.09991 117.601 3.99989 115.701 2.49989C114.301 1.39989 111.901 0.299896 108.201 0.599896L97.8008 1.5999L100.101 25.6999L107.701 25.0999ZM108.801 6.0999C109.801 5.9999 111.901 6.4999 112.101 9.1999C112.201 9.9999 112.001 10.6999 111.601 11.1999C111.201 11.6999 110.701 11.9999 109.801 12.0999L106.401 12.3999L105.801 6.39991L108.801 6.0999Z" fill="#1E1E1E"/>
<path d="M143.401 27.1999L150.601 29.2998L153.401 19.5999L164.701 8.19986L158.801 6.49985L152.001 13.3999L150.001 3.89987L142.201 1.59985L146.201 17.4998L143.401 27.1999Z" fill="#1E1E1E"/>
<path d="M174.501 41.2L179.101 37.7L170.401 32.5L172.401 29.3L176.301 31.6L180.801 28.1L175.101 24.7L177.401 20.9L186.101 26.1L187.001 20.4L173.701 12.5L161.201 33.3L174.501 41.2Z" fill="#1E1E1E"/>
<path d="M183.1 47.7999L187.7 46.1999L194.7 53.3999L192.9 57.9999L198.5 63.7999L208.2 38.8999L204.3 34.8999L178.9 43.4999L183.1 47.7999ZM199.1 42.2999L196.9 47.8999L193.4 44.2999L199.1 42.2999Z" fill="#1E1E1E"/>
<path d="M202.4 71.2999L214.8 64.7L207.4 80.7999L209.3 84.4L230.7 73.1L228.2 68.2999L218.6 73.4L224.3 60.9L221.3 55.2L199.9 66.4999L202.4 71.2999Z" fill="#1E1E1E"/>
<path d="M212.5 95.5997L214.1 102.9L224 100.7L239.4 105.1L238.1 99.0997L228.8 96.4997L236.1 90.1997L234.3 82.1997L222.4 93.3997L212.5 95.5997Z" fill="#1E1E1E"/>
<path d="M21.6003 131.7H15.1003C14.7003 131.7 14.3002 131.3 14.5002 130.9L17.9002 118.4C18.0002 118.1 17.6002 118 17.5002 118.2L1.50016 139.3C1.40016 139.5 1.50023 139.7 1.70023 139.7H8.20023C8.60023 139.7 9.0002 140.1 8.8002 140.5L5.40018 153C5.30018 153.3 5.7002 153.4 5.8002 153.2L21.8002 132.1C21.9002 132 21.8003 131.7 21.6003 131.7Z" fill="#1E1E1E"/>
<path d="M235.801 131.7H229.301C228.901 131.7 228.501 131.3 228.701 130.9L232.101 118.4C232.201 118.1 231.801 118 231.701 118.2L215.701 139.3C215.601 139.5 215.701 139.7 215.901 139.7H222.401C222.801 139.7 223.201 140.1 223.001 140.5L219.601 153C219.501 153.3 219.901 153.4 220.001 153.2L236.001 132.1C236.101 132 236.001 131.7 235.801 131.7Z" fill="#1E1E1E"/>
</svg>
