<svg width="86" height="36" viewBox="0 0 86 36" fill="none" xmlns="http://www.w3.org/2000/svg">
<path d="M9.75066 15.6338V9.75844H5.80002V15.6338H0.971436V0H5.80002V6.28052H9.75066V0H14.5792V15.6338H9.75066Z" fill="#F9F7F7"/>
<path d="M26.6675 15.0935C25.8234 15.5662 24.7766 15.8364 23.1896 15.8364C17.2805 15.8364 15.9299 12.9325 15.9299 8.0026V0H20.7585V8.0026C20.7585 12.0883 21.7376 12.3584 23.0883 12.3584C23.9325 12.3247 24.5403 12.2571 24.9792 12.0545C25.7221 11.5818 25.9922 10.4675 25.9922 8.0026V0H29.4364V8.0026C29.4364 10.3662 29.4364 13.6416 26.6675 15.0935Z" fill="#F9F7F7"/>
<path d="M41.2208 15.6338L34.2312 6.58442V15.6338H30.787V0H34.9065L40.3429 6.98961V0H43.8208V15.6338H41.2208Z" fill="#F9F7F7"/>
<path d="M53.9844 15.6338H49.1559V3.44416H45.2052V0H58.0026V3.44416H54.0182V15.6338H53.9844Z" fill="#F9F7F7"/>
<path d="M69.2805 15.6338H59.3195V0H70.6987L69.3143 3.44416H64.148V6.31429H68.4363L67.0857 9.75844H64.148V12.1558H70.6649L69.2805 15.6338Z" fill="#F9F7F7"/>
<path d="M78.7351 0C81.0987 0 82.5844 0.911688 83.4286 1.65455C84.5429 2.7013 85.1844 4.08571 85.1844 5.53766C85.1844 6.95584 84.6104 8.30649 83.5298 9.25195C83.2935 9.45454 83.0571 9.62338 82.8208 9.79221L85.8597 15.6H80.5584L77.9922 10.7714H76.8442V15.6338H72.0156V0H78.7351ZM80.2545 6.85455C80.5247 6.55065 80.6935 6.07792 80.6935 5.60519C80.6935 3.88312 79.4104 3.44416 78.7351 3.44416H76.8442V7.32727H79.039C79.613 7.32727 80.0182 7.19221 80.2545 6.85455Z" fill="#F9F7F7"/>
<path d="M11.1351 35.6908H6.30652V29.1739L0.971436 20.0908H6.239L9.17665 25.5947L12.1481 20.0908H16.0987L11.1689 29.2077V35.6908H11.1351Z" fill="#F9F7F7"/>
<path d="M27.3767 35.6909H17.4156V20.0571H28.7949L27.4104 23.5013H22.2442V26.3714H26.5325L25.1819 29.8156H22.2442V32.213H28.7611L27.3767 35.6909Z" fill="#F9F7F7"/>
<path d="M40.4779 32.8545H33.9948L32.6442 35.7246H28.8286L36.1896 20.0908H39.8026L47.0286 35.7246H41.8286L40.4779 32.8545ZM35.5818 29.3765H38.8571L37.2364 25.8986L35.5818 29.3765Z" fill="#F9F7F7"/>
<path d="M58.7792 35.6909L51.7896 26.6415V35.6909H48.3455V20.0571H52.4649L57.9013 27.0467V20.0571H61.3792V35.6909H58.7792V35.6909Z" fill="#F9F7F7"/>
<path d="M72.8935 35.6908H68.0649V29.1739L62.7299 20.0908H67.9974L70.9351 25.5947L73.9065 20.0908H77.8571L72.9273 29.2077V35.6908H72.8935Z" fill="#F9F7F7"/>
</svg>
