<svg width="371" height="303" viewBox="0 0 371 303" fill="none" xmlns="http://www.w3.org/2000/svg">
<circle cx="137.696" cy="133.957" r="133.84" fill="#1E1E1E"/>
<path d="M62.6494 302.769L34.9995 285.328C34.7159 285.186 34.7159 284.761 34.8577 284.477L39.9623 278.805L9.05112 259.238C8.76753 259.096 8.76753 258.671 8.90932 258.387L14.4393 252.29C14.5811 252.148 14.5811 251.723 14.4393 251.581L0.968833 237.969C0.543449 237.543 1.11063 236.834 1.67781 237.118L28.6188 254.133C28.9024 254.275 28.9024 254.7 28.7606 254.984L24.0813 260.089C23.7977 260.372 23.9395 260.656 24.2231 260.939L54.5672 280.223C54.8507 280.365 54.8507 280.791 54.709 281.074L50.0297 286.321C49.8879 286.462 49.8879 286.888 50.0297 287.03L63.5002 302.06C63.7838 302.343 63.2166 303.052 62.6494 302.769Z" fill="#E3D6D6"/>
<path d="M55.56 256.118L43.2239 248.32C43.0821 248.178 43.0821 248.036 43.2239 247.894L45.4926 245.342L31.5968 236.551C31.455 236.409 31.455 236.267 31.5968 236.125L34.0073 233.431C34.1491 233.29 34.1491 233.148 34.0073 233.148L27.9101 227.051C27.7683 226.909 27.9101 226.483 28.1937 226.625L40.2462 234.282C40.388 234.424 40.388 234.566 40.2462 234.708L38.1193 236.976C37.9775 237.118 37.9775 237.26 38.1193 237.402L51.7316 246.051C51.8734 246.193 51.8734 246.335 51.7316 246.476L49.6047 248.887C49.4629 249.029 49.4629 249.171 49.6047 249.171L55.7018 255.835C55.9854 255.977 55.8436 256.26 55.56 256.118Z" fill="#E3D6D6"/>
<path d="M111.994 295.679L127.024 266.611C127.166 266.327 127.024 265.902 126.74 265.902L119.509 263.633L136.382 231.162C136.524 230.879 136.382 230.453 136.099 230.453L128.3 227.901C128.017 227.759 127.875 227.476 127.875 227.192L132.696 208.617C132.838 208.05 131.987 207.624 131.703 208.192L117.098 236.409C116.957 236.692 117.098 237.118 117.382 237.118L124.046 239.245C124.33 239.386 124.472 239.67 124.33 239.954L107.882 271.857C107.74 272.141 107.882 272.566 108.165 272.566L114.83 274.693C115.113 274.835 115.255 274.977 115.255 275.26L111.143 294.97C110.859 295.962 111.71 296.246 111.994 295.679Z" fill="#E3D6D6"/>
<path d="M94.5535 251.865L101.218 238.819C101.218 238.678 101.218 238.536 101.076 238.536L97.8148 237.543L105.33 222.938C105.33 222.797 105.33 222.655 105.188 222.655L101.643 221.521C101.501 221.521 101.501 221.379 101.501 221.237L103.628 212.871C103.77 212.587 103.345 212.446 103.203 212.729L96.6804 225.349C96.6804 225.491 96.6804 225.633 96.8222 225.633L99.7999 226.625C99.9417 226.625 99.9417 226.767 99.9417 226.909L92.5684 241.23C92.5684 241.372 92.5684 241.514 92.7102 241.514L95.8296 242.506C95.9714 242.506 95.9714 242.648 95.9714 242.79L94.1281 251.581C94.1281 252.006 94.5535 252.006 94.5535 251.865Z" fill="#E3D6D6"/>
<path d="M192.25 43.0013C191.824 40.5908 191.115 39.4564 190.123 39.5982C189.13 39.74 188.705 41.0162 189.13 43.4267C191.399 57.039 194.235 70.5094 197.638 83.8381C198.205 86.2486 199.056 87.2412 200.048 86.9576C201.041 86.674 201.183 85.3979 200.615 82.9874C197.354 69.6587 194.518 56.33 192.25 43.0013Z" fill="#E3D6D6"/>
<path d="M253.079 36.479C252.796 34.3521 252.228 33.7849 250.811 33.9267C250.385 33.9267 249.96 34.0685 249.393 34.0685C250.527 40.8747 251.803 47.6808 253.221 54.4869C253.788 54.3451 254.355 54.2034 255.064 54.0616C256.057 53.778 256.199 52.9272 255.773 51.2257C254.923 46.2629 253.93 41.3001 253.079 36.479Z" fill="#E3D6D6"/>
<path d="M117.666 45.6952C116.532 42.5757 115.114 41.4413 113.128 42.1503C111.143 42.8593 110.718 44.8444 111.71 47.8221L129.86 99.7189C130.995 102.838 132.554 103.973 134.539 103.264C136.525 102.555 136.95 100.711 135.957 97.5919L117.666 45.6952Z" fill="#E3D6D6"/>
<path d="M305.543 30.2395C305.259 28.8216 304.834 28.3962 303.416 28.538C302.991 28.538 302.565 28.6798 301.998 28.6798C302.849 33.5008 303.7 38.3218 304.692 43.0011C305.259 42.8593 305.827 42.7175 306.535 42.5757C307.528 42.2921 307.67 41.7249 307.386 40.4488C306.819 37.0457 306.252 33.6426 305.543 30.2395Z" fill="#E3D6D6"/>
<path d="M367.507 34.4936C253.079 -9.03735 177.077 12.6572 155.95 20.7395L150.562 2.02263C150.136 0.604681 148.86 -0.104291 147.442 0.179298C104.479 9.53773 62.9328 24.8515 24.0811 46.1207C23.0886 43.4266 20.1109 42.0087 17.275 42.7176C14.2973 43.5684 12.5958 46.6879 13.4465 49.6656L83.3512 295.254C84.0602 297.664 86.3289 299.366 88.7394 299.366C89.3066 299.366 89.732 299.366 90.2992 299.082C93.2769 298.231 94.9784 295.112 94.1276 292.134L59.8133 171.467C83.7766 155.87 109.3 143.392 135.957 134.175C135.957 134.175 136.099 134.175 136.241 134.033C145.315 130.914 154.532 128.22 163.749 125.951C171.547 123.824 179.913 121.839 187.145 120.421C187.712 120.279 187.996 121.13 187.428 121.272C183.6 122.69 177.645 124.958 171.264 127.653L175.092 146.369C176.085 151.049 182.04 152.75 185.16 149.064C218.056 111.913 335.036 56.7553 367.791 41.5833C371.052 40.3071 370.911 35.7697 367.507 34.4936ZM100.65 130.347L71.2987 73.3453L70.4479 73.6289L74.9854 85.256L91.8589 133.466L78.8138 138.004L47.7608 49.8074L65.7687 43.4266L95.1202 100.428L95.9709 100.144L91.5753 88.6591L74.7018 40.4489L87.7469 35.9115L118.658 124.108L100.65 130.347ZM150.704 108.794C148.719 112.764 145.032 115.742 139.502 117.585C133.972 119.57 129.293 119.57 125.181 117.727C121.21 115.884 117.949 111.63 115.539 104.824L97.5307 52.6433C95.1202 45.8371 94.9784 40.4489 96.9635 36.4787C98.9486 32.5084 102.635 29.6726 108.165 27.6874C113.695 25.7023 118.374 25.7023 122.345 27.5456C126.315 29.389 129.576 33.7846 131.845 40.5907L150.136 92.7711C152.547 99.5772 152.689 104.965 150.704 108.794ZM210.257 100.712C208.698 99.2937 207.138 97.8757 205.578 96.316C204.869 96.8831 204.018 97.3085 203.026 97.7339C200.332 98.7265 197.921 98.3011 195.794 96.5996C193.667 94.898 191.966 91.3532 190.548 85.8232C187.003 72.0691 184.167 58.0315 181.757 43.9938C180.764 38.4638 181.048 34.4936 182.182 32.0831C183.458 29.6726 185.443 28.3964 188.279 28.2546C191.115 28.1128 193.526 29.1054 195.369 31.2323C197.212 33.3592 198.63 36.9041 199.481 42.0087C201.75 55.0538 204.444 67.9571 207.705 80.7186C208.556 83.8381 208.839 86.5322 208.839 88.9427C209.974 90.077 210.966 91.0696 212.101 92.2039C211.392 95.0398 210.825 97.8757 210.257 100.712ZM227.414 85.6814C226.422 88.2337 224.72 89.9352 222.026 90.9278C219.332 91.9203 216.922 91.6367 214.937 90.077C212.951 88.5173 211.25 85.256 209.974 80.2932C205.72 63.2778 202.317 45.9789 199.765 28.5382C202.175 28.3964 204.727 28.2546 207.138 28.1128C209.548 44.9864 212.81 61.7181 216.922 78.1663C217.489 80.2932 218.198 81.2858 219.19 81.0022C220.183 80.7186 220.325 79.4424 219.899 77.3155C215.787 61.0091 212.526 44.561 210.257 27.971C212.668 27.8292 215.22 27.6874 217.631 27.5456C219.899 43.5684 223.019 59.5912 226.989 75.1886C228.265 79.726 228.407 83.1291 227.414 85.6814ZM243.863 82.2783C242.728 79.1588 241.736 76.0394 240.743 73.0617C239.183 73.4871 237.482 74.0542 235.922 74.4796C236.631 77.7409 237.198 81.144 238.049 84.4052C235.78 85.256 233.653 85.965 231.385 86.8157C227.131 66.8227 224.153 46.9715 222.735 27.1203C226.989 26.8367 231.243 26.6949 235.497 26.4113C239.325 44.8446 244.43 62.7107 250.669 79.8678C248.4 80.7186 246.131 81.4276 243.863 82.2783ZM263.288 75.3304C261.162 70.793 259.035 66.2555 257.05 61.5763C256.482 61.7181 255.773 61.8599 255.206 62.0017C256.341 66.9645 257.617 71.9273 259.035 76.7483C256.766 77.5991 254.355 78.4499 252.087 79.3006C247.124 61.8599 243.437 44.1356 240.885 26.1277C244.43 25.9859 247.833 25.7023 251.378 25.5605C254.355 25.4187 256.341 26.1277 257.617 27.5456C258.751 28.9636 259.744 31.6577 260.311 35.6279C261.162 40.3071 262.012 44.9864 263.005 49.6656C263.714 53.0686 263.43 55.7627 262.296 57.7479C264.565 62.9943 267.117 68.0989 269.527 72.9199C267.401 73.7706 265.274 74.4796 263.288 75.3304ZM274.916 71.0765C271.371 58.315 268.535 45.4117 266.408 32.5084C264.848 32.6502 263.147 32.792 261.587 33.0756C261.162 30.5233 260.736 27.8292 260.453 25.2769C266.124 24.9933 271.938 24.7097 277.61 24.2844C277.893 26.6949 278.319 28.9636 278.744 31.3741C277.184 31.5159 275.483 31.6577 273.923 31.9413C275.908 44.4192 278.744 56.6135 282.147 68.8078C279.453 69.375 277.184 70.2258 274.916 71.0765ZM287.961 66.2555C284.132 52.3597 281.155 38.1802 279.028 24.0008C283.423 23.7172 287.677 23.5754 292.073 23.2918C292.356 25.4187 292.64 27.5456 293.065 29.6726C291.222 29.8143 289.379 30.0979 287.535 30.2397C288.103 33.6428 288.67 37.0459 289.379 40.4489C291.222 40.1653 292.924 39.74 294.767 39.4564C295.192 41.5833 295.618 43.5684 296.043 45.6953C294.2 46.1207 292.498 46.5461 290.655 46.9715C291.364 50.3745 292.215 53.9194 293.065 57.3225C294.909 56.7553 296.61 56.1881 298.454 55.6209C299.021 57.7479 299.588 59.733 300.155 61.8599C296.185 63.4196 292.073 64.8376 287.961 66.2555ZM313.058 57.1807C311.357 54.203 309.513 51.0835 307.954 47.8223C307.387 47.964 306.678 48.1058 306.11 48.2476C306.961 51.7925 307.812 55.1956 308.805 58.5986C306.536 59.4494 304.125 60.3002 301.857 61.1509C298.312 48.673 295.618 35.9115 293.774 23.15C297.319 23.0082 300.722 22.7246 304.267 22.5828C307.245 22.441 309.23 22.8664 310.364 23.859C311.499 24.8515 312.208 26.6949 312.775 29.389C313.342 32.6502 313.909 35.7697 314.618 39.031C315.043 41.2997 314.76 43.2848 313.342 44.8446C315.327 48.3894 317.312 51.7925 319.297 55.0538C317.312 55.7627 315.185 56.4717 313.058 57.1807Z" fill="#E3D6D6"/>
<path d="M230.251 36.9043C231.244 46.2628 232.52 55.6212 234.221 65.1214C235.497 64.8378 236.774 64.4125 238.191 64.1289C235.497 55.1958 233.229 46.121 231.102 36.9043C230.818 36.7625 230.535 36.9043 230.251 36.9043Z" fill="#E3D6D6"/>
</svg>
