<svg width="687" height="20" viewBox="0 0 687 20" fill="none" xmlns="http://www.w3.org/2000/svg">
<path d="M135.238 10.5475L113.757 9.38142C113.488 9.38142 113.219 9.10705 113.219 8.83268L112.817 1.15037C112.817 0.80741 112.481 0.533042 112.145 0.601634L74.687 9.24423C74.3513 9.31283 74.0157 9.03846 74.0157 8.6955L73.6129 1.15037C73.6129 0.80741 73.2772 0.533042 72.9416 0.601634L35.416 9.17564C35.0803 9.24423 34.7447 8.96986 34.7447 8.6269L34.3419 1.08178C34.3419 0.738818 34.0063 0.46445 33.6706 0.533042L0.441346 8.21535C-0.229953 8.35254 -0.0956931 9.38142 0.575605 9.38142L20.9831 9.45001C21.3187 9.45001 21.5201 9.72438 21.5872 9.99875L22.0572 18.9843C22.0572 19.3273 22.3928 19.6016 22.7285 19.533L60.8582 10.7533L61.3281 18.9843C61.3281 19.3273 61.6638 19.6016 61.9994 19.533L100.129 10.7533L100.599 18.9843C100.599 19.3273 100.935 19.6016 101.27 19.533L135.305 11.7135C136.044 11.5078 135.909 10.5475 135.238 10.5475Z" fill="#FF5242"/>
<path d="M213.847 10.5473L192.365 9.38118C192.097 9.38118 191.828 9.10682 191.828 8.83245L191.426 1.15014C191.426 0.807178 191.09 0.532809 190.754 0.601401L153.296 9.244C152.96 9.31259 152.625 9.03822 152.625 8.69526L152.222 1.15014C152.222 0.807178 151.886 0.532809 151.551 0.601401L114.092 9.244C113.756 9.31259 113.421 9.03822 113.421 8.69526L113.018 1.15014C113.018 0.807178 112.682 0.532809 112.347 0.601401L79.1845 8.21512C78.5132 8.3523 78.6475 9.38118 79.3188 9.38118L99.7934 9.44978C100.129 9.44978 100.33 9.72415 100.398 9.99851L100.867 18.9841C100.867 19.327 101.203 19.6014 101.539 19.5328L139.669 10.753L140.138 18.9841C140.138 19.327 140.474 19.6014 140.81 19.5328L178.939 10.753L179.409 18.9841C179.409 19.327 179.745 19.6014 180.081 19.5328L214.116 11.7133C214.585 11.5075 214.518 10.5473 213.847 10.5473Z" fill="#FF5242"/>
<path d="M292.456 10.5473L270.975 9.38118C270.706 9.38118 270.438 9.10682 270.438 8.83245L270.035 1.15014C270.035 0.807178 269.699 0.532809 269.364 0.601401L231.905 9.244C231.57 9.31259 231.234 9.03822 231.234 8.69526L230.831 1.15014C230.831 0.807178 230.496 0.532809 230.16 0.601401L192.701 9.244C192.366 9.31259 192.03 9.03822 192.03 8.69526L191.627 1.15014C191.627 0.807178 191.292 0.532809 190.956 0.601401L157.794 8.21512C157.123 8.3523 157.257 9.38118 157.928 9.38118L178.403 9.44978C178.738 9.44978 178.94 9.72415 179.007 9.99851L179.477 18.9841C179.477 19.327 179.812 19.6014 180.148 19.5328L218.278 10.753L218.748 18.9841C218.748 19.327 219.083 19.6014 219.419 19.5328L257.549 10.753L258.019 18.9841C258.019 19.327 258.354 19.6014 258.69 19.5328L292.725 11.7133C293.195 11.5075 293.128 10.5473 292.456 10.5473Z" fill="#FF5242"/>
<path d="M371.065 10.5475L349.584 9.38142C349.315 9.38142 349.047 9.10705 349.047 8.83268L348.644 1.15037C348.644 0.80741 348.308 0.533042 347.973 0.601634L310.514 9.24423C310.178 9.31283 309.843 9.03846 309.843 8.6955L309.44 1.15037C309.44 0.80741 309.104 0.533042 308.769 0.601634L271.176 9.17564C270.84 9.24423 270.505 8.96986 270.505 8.6269L270.102 1.08178C270.102 0.738818 269.766 0.46445 269.431 0.533042L236.268 8.14676C235.597 8.28394 235.731 9.31283 236.403 9.31283L256.877 9.38142C257.213 9.38142 257.414 9.65579 257.482 9.93015L257.951 18.9157C257.951 19.2587 258.287 19.533 258.623 19.4645L296.685 10.7533L297.155 18.9843C297.155 19.3273 297.491 19.6016 297.827 19.533L335.956 10.7533L336.426 18.9843C336.426 19.3273 336.762 19.6016 337.098 19.533L371.132 11.7135C371.804 11.5078 371.737 10.5475 371.065 10.5475Z" fill="#FF5242"/>
<path d="M449.674 10.5473L428.193 9.38118C427.924 9.38118 427.656 9.10682 427.656 8.83245L427.253 1.15014C427.253 0.807178 426.917 0.532809 426.582 0.601401L389.123 9.244C388.788 9.31259 388.452 9.03822 388.452 8.69526L388.049 1.15014C388.049 0.807178 387.713 0.532809 387.378 0.601401L349.919 9.244C349.584 9.31259 349.248 9.03822 349.248 8.69526L348.845 1.15014C348.845 0.807178 348.51 0.532809 348.174 0.601401L314.81 8.21512C314.139 8.3523 314.273 9.38118 314.945 9.38118L335.419 9.44978C335.755 9.44978 335.956 9.72415 336.024 9.99851L336.493 18.9841C336.493 19.327 336.829 19.6014 337.165 19.5328L375.294 10.753L375.764 18.9841C375.764 19.327 376.1 19.6014 376.436 19.5328L414.565 10.753L415.035 18.9841C415.035 19.327 415.371 19.6014 415.707 19.5328L449.741 11.7133C450.413 11.5075 450.346 10.5473 449.674 10.5473Z" fill="#FF5242"/>
<path d="M528.216 10.5473L506.735 9.38118C506.466 9.38118 506.198 9.10682 506.198 8.83245L505.795 1.15014C505.795 0.807178 505.459 0.532809 505.123 0.601401L467.665 9.244C467.329 9.31259 466.994 9.03822 466.994 8.69526L466.591 1.15014C466.591 0.807178 466.255 0.532809 465.92 0.601401L428.461 9.244C428.126 9.31259 427.79 9.03822 427.79 8.69526L427.387 1.15014C427.387 0.807178 427.051 0.532809 426.716 0.601401L393.554 8.21512C392.882 8.3523 393.017 9.38118 393.688 9.38118L414.163 9.44978C414.498 9.44978 414.7 9.72415 414.767 9.99851L415.237 18.9841C415.237 19.327 415.572 19.6014 415.908 19.5328L454.038 10.753L454.508 18.9841C454.508 19.327 454.843 19.6014 455.179 19.5328L493.309 10.753L493.779 18.9841C493.779 19.327 494.114 19.6014 494.45 19.5328L528.485 11.7133C529.022 11.5075 528.887 10.5473 528.216 10.5473Z" fill="#FF5242"/>
<path d="M606.825 10.5473L585.344 9.38118C585.075 9.38118 584.807 9.10682 584.807 8.83245L584.404 1.15014C584.404 0.807178 584.068 0.532809 583.733 0.601401L546.274 9.244C545.939 9.31259 545.603 9.03822 545.603 8.69526L545.2 1.15014C545.2 0.807178 544.865 0.532809 544.529 0.601401L507.071 9.244C506.735 9.31259 506.399 9.03822 506.399 8.69526L505.996 1.15014C505.996 0.807178 505.661 0.532809 505.325 0.601401L472.163 8.21512C471.492 8.3523 471.626 9.38118 472.297 9.38118L492.772 9.44978C493.108 9.44978 493.309 9.72415 493.376 9.99851L493.846 18.9841C493.846 19.327 494.182 19.6014 494.517 19.5328L532.647 10.753L533.117 18.9841C533.117 19.327 533.453 19.6014 533.788 19.5328L571.918 10.753L572.388 18.9841C572.388 19.327 572.724 19.6014 573.059 19.5328L607.094 11.7133C607.564 11.5075 607.497 10.5473 606.825 10.5473Z" fill="#FF5242"/>
<path d="M685.434 10.5473L663.953 9.38118C663.684 9.38118 663.416 9.10682 663.416 8.83245L663.013 1.15014C663.013 0.807178 662.677 0.532809 662.342 0.601401L624.883 9.244C624.548 9.31259 624.212 9.03822 624.212 8.69526L623.809 1.15014C623.809 0.807178 623.474 0.532809 623.138 0.601401L585.679 9.244C585.344 9.31259 585.008 9.03822 585.008 8.69526L584.605 1.15014C584.605 0.807178 584.27 0.532809 583.934 0.601401L550.772 8.21512C550.101 8.3523 550.235 9.38118 550.906 9.38118L571.381 9.44978C571.716 9.44978 571.918 9.72415 571.985 9.99851L572.455 18.9841C572.455 19.327 572.79 19.6014 573.126 19.5328L611.256 10.753L611.726 18.9841C611.726 19.327 612.061 19.6014 612.397 19.5328L650.527 10.753L650.997 18.9841C650.997 19.327 651.332 19.6014 651.668 19.5328L685.703 11.7133C686.173 11.5075 686.106 10.5473 685.434 10.5473Z" fill="#FF5242"/>
</svg>
