<svg width="30" height="30" viewBox="0 0 30 30" fill="none" xmlns="http://www.w3.org/2000/svg">
<circle cx="15" cy="15" r="15" fill="#1E1E1E"/>
<path d="M22.7562 10.1594C22.2816 9.315 21.7664 9.15969 20.7175 9.10063C19.6697 9.02953 17.0348 9 14.7522 9C12.4652 9 9.82922 9.02953 8.7825 9.09953C7.73578 9.15969 7.21953 9.31391 6.74047 10.1594C6.25156 11.0027 6 12.4552 6 15.0123C6 15.0145 6 15.0156 6 15.0156C6 15.0178 6 15.0189 6 15.0189V15.0211C6 17.5673 6.25156 19.0308 6.74047 19.8653C7.21953 20.7097 7.73469 20.8628 8.78141 20.9339C9.82922 20.9952 12.4652 21.0312 14.7522 21.0312C17.0348 21.0312 19.6697 20.9952 20.7186 20.935C21.7675 20.8639 22.2827 20.7108 22.7573 19.8664C23.2506 19.0319 23.5 17.5684 23.5 15.0222C23.5 15.0222 23.5 15.0189 23.5 15.0167C23.5 15.0167 23.5 15.0145 23.5 15.0134C23.5 12.4552 23.2506 11.0027 22.7562 10.1594ZM12.5625 18.2969V11.7344L18.0312 15.0156L12.5625 18.2969Z" fill="white"/>
</svg>
