<svg width="148" height="127" viewBox="0 0 148 127" fill="none" xmlns="http://www.w3.org/2000/svg">
<path d="M146.431 0.216299L126.662 17.7822C126.38 18.0646 125.928 18.0081 125.645 17.7822L117.569 9.70525C117.23 9.36636 116.721 9.42284 116.439 9.81821L101.641 30.6035C94.1286 24.1646 84.4137 20.3238 73.7952 20.3238C50.1293 20.3238 30.9819 39.4712 30.9819 63.1371C30.9819 72.7955 34.1449 81.6631 39.5672 88.8363L34.5968 95.84C34.3144 96.2354 33.806 96.2354 33.4671 95.953L26.6893 89.1752C26.3504 88.8363 25.8421 88.8928 25.5597 89.2882L0.142841 125.041C-0.365496 125.775 0.594695 126.623 1.27248 126.001L21.0411 108.436C21.3235 108.153 21.7754 108.21 22.0578 108.436L30.1347 116.512C30.4736 116.851 30.9819 116.795 31.2643 116.399L46.0626 95.6141C53.5747 102.053 63.2895 105.894 73.9081 105.894C97.574 105.894 116.721 86.7465 116.721 63.0806C116.721 53.4222 113.558 44.5545 108.136 37.3813L113.107 30.3776C113.389 29.9822 113.897 29.9822 114.236 30.2646L121.014 37.0425C121.353 37.3813 121.861 37.3249 122.144 36.9295L147.617 1.12001C148.012 0.442226 147.052 -0.405001 146.431 0.216299ZM110.847 63.0806C110.847 83.527 94.2981 100.076 73.8516 100.076C53.4052 100.076 36.856 83.527 36.856 63.0806C36.856 42.6342 53.4052 26.085 73.8516 26.085C94.2981 26.085 110.847 42.6906 110.847 63.0806Z" fill="#FF5242"/>
</svg>
