<svg width="95" height="13" viewBox="0 0 95 13" fill="none" xmlns="http://www.w3.org/2000/svg">
<path d="M94.6286 6.80514L79.5711 5.99321C79.3497 5.99321 79.202 5.84559 79.202 5.62415L78.9068 0.383535C78.9068 0.162101 78.6854 -0.0593339 78.3901 0.0144776L52.187 5.9194C51.9656 5.99321 51.7442 5.77178 51.6703 5.55034L51.3751 0.383534C51.3751 0.1621 51.1537 -0.0593351 50.8584 0.0144764L24.6553 5.9194C24.4339 5.99321 24.2124 5.77178 24.1386 5.55034L23.8434 0.383533C23.8434 0.162098 23.622 -0.0593363 23.3267 0.0144752L0.297508 5.18128C-0.145363 5.25509 -0.0715411 5.99321 0.371322 5.99321L14.6908 6.06702C14.9122 6.06702 15.0598 6.21464 15.0598 6.43608L15.4289 12.5624C15.4289 12.7839 15.6503 13.0053 15.9456 12.9315L42.5915 6.95276L42.8868 12.5624C42.8868 12.7839 43.1082 13.0053 43.4034 12.9315L70.0494 6.95276L70.3447 12.5624C70.3447 12.7839 70.5661 13.0053 70.8613 12.9315L94.7025 7.54325C95.1453 7.46944 95.0715 6.80514 94.6286 6.80514Z" fill="#FF5242"/>
</svg>
