<svg width="255" height="214" viewBox="0 0 255 214" fill="none" xmlns="http://www.w3.org/2000/svg">
<g clip-path="url(#clip0_410_440)">
<path d="M43.6 213.5L24.1 201.2C23.9 201.1 23.9 200.8 24 200.6L27.6 196.6L5.79998 182.8C5.59998 182.7 5.59998 182.4 5.69998 182.2L9.59998 177.9C9.69998 177.8 9.69998 177.5 9.59998 177.4L0.0999824 167.8C-0.200018 167.5 0.199982 167 0.599982 167.2L19.6 179.2C19.8 179.3 19.8 179.6 19.7 179.8L16.4 183.4C16.2 183.6 16.3 183.8 16.5 184L37.9 197.6C38.1 197.7 38.1 198 38 198.2L34.7 201.9C34.6 202 34.6 202.3 34.7 202.4L44.2 213C44.4 213.2 44 213.7 43.6 213.5Z" fill="#FF5242"/>
<path d="M38.6 180.6L29.9 175.1C29.8 175 29.8 174.9 29.9 174.8L31.5 173L21.7 166.8C21.6 166.7 21.6 166.6 21.7 166.5L23.4 164.6C23.5 164.5 23.5 164.4 23.4 164.4L19.1 160.1C19 160 19.1 159.7 19.3 159.8L27.8 165.2C27.9 165.3 27.9 165.4 27.8 165.5L26.3 167.1C26.2 167.2 26.2 167.3 26.3 167.4L35.9 173.5C36 173.6 36 173.7 35.9 173.8L34.4 175.5C34.3 175.6 34.3 175.7 34.4 175.7L38.7 180.4C38.9 180.5 38.8 180.7 38.6 180.6Z" fill="#FF5242"/>
<path d="M72.3 208.5L82.9 188C83 187.8 82.9 187.5 82.7 187.5L77.6 185.9L89.5 163C89.6 162.8 89.5 162.5 89.3 162.5L83.8 160.7C83.6 160.6 83.5 160.4 83.5 160.2L86.9 147.1C87 146.7 86.4 146.4 86.2 146.8L75.9 166.7C75.8 166.9 75.9 167.2 76.1 167.2L80.8 168.7C81 168.8 81.1 169 81 169.2L69.4 191.7C69.3 191.9 69.4 192.2 69.6 192.2L74.3 193.7C74.5 193.8 74.6 193.9 74.6 194.1L71.7 208C71.5 208.7 72.1 208.9 72.3 208.5Z" fill="#FF5242"/>
<path d="M60 177.6L64.7 168.4C64.7 168.3 64.7 168.2 64.6 168.2L62.3 167.5L67.6 157.2C67.6 157.1 67.6 157 67.5 157L65 156.2C64.9 156.2 64.9 156.1 64.9 156L66.4 150.1C66.5 149.9 66.2 149.8 66.1 150L61.5 158.9C61.5 159 61.5 159.1 61.6 159.1L63.7 159.8C63.8 159.8 63.8 159.9 63.8 160L58.6 170.1C58.6 170.2 58.6 170.3 58.7 170.3L60.8 171C60.9 171 60.9 171.1 60.9 171.2L59.6 177.4C59.7 177.7 59.9 177.7 60 177.6Z" fill="#FF5242"/>
<path d="M128.9 30.2999C128.6 28.5999 128.1 27.7999 127.4 27.8999C126.7 27.9999 126.4 28.8999 126.7 30.5999C128.3 40.1999 130.3 49.6999 132.7 59.0999C133.1 60.7999 133.7 61.4999 134.4 61.2999C135.1 61.0999 135.2 60.1999 134.8 58.4999C132.4 49.0999 130.5 39.6999 128.9 30.2999Z" fill="#FF5242"/>
<path d="M171.8 25.7002C171.6 24.2002 171.2 23.8002 170.2 23.9002C169.9 23.9002 169.6 24.0002 169.2 24.0002C170 28.8002 170.9 33.6002 171.9 38.4002C172.3 38.3002 172.7 38.2002 173.2 38.1002C173.9 37.9002 174 37.3002 173.7 36.1002C173.1 32.6002 172.4 29.1002 171.8 25.7002Z" fill="#FF5242"/>
<path d="M76.3 32.2002C75.5 30.0002 74.5 29.2002 73.1 29.7002C71.7 30.2002 71.4 31.6002 72.1 33.7002L84.9 70.3002C85.7 72.5002 86.8 73.3002 88.2 72.8002C89.6 72.3002 89.9 71.0002 89.2 68.8002L76.3 32.2002Z" fill="#FF5242"/>
<path d="M208.8 21.3002C208.6 20.3002 208.3 20.0002 207.3 20.1002C207 20.1002 206.7 20.2002 206.3 20.2002C206.9 23.6002 207.5 27.0002 208.2 30.3002C208.6 30.2002 209 30.1002 209.5 30.0002C210.2 29.8002 210.3 29.4002 210.1 28.5002C209.7 26.1002 209.2 23.7002 208.8 21.3002Z" fill="#FF5242"/>
<path d="M252.5 24.3001C171.8 -6.3999 118.2 8.9001 103.2 14.6001L99.5 1.4001C99.2 0.400099 98.3 -0.0999005 97.3 0.100099C67 6.6001 37.7 17.5001 10.3 32.4001C9.59996 30.5001 7.49996 29.5001 5.49996 30.0001C3.39996 30.6001 2.19996 32.8001 2.79996 34.9001L52 208.2C52.5 209.9 54.1 211.1 55.8 211.1C56.2 211.1 56.5 211.1 56.9 210.9C59 210.3 60.2 208.1 59.6 206L35.4 120.9C52.3 109.9 70.3 101.1 89.1 94.6001C89.1 94.6001 89.2 94.6001 89.3 94.5001C95.7 92.3001 102.2 90.4001 108.7 88.8001C114.2 87.3001 120.1 85.9001 125.2 84.9001C125.6 84.8001 125.8 85.4001 125.4 85.5001C122.7 86.5001 118.5 88.1001 114 90.0001L116.7 103.2C117.4 106.5 121.6 107.7 123.8 105.1C147 78.9001 229.5 40.0001 252.6 29.3001C255 28.4001 254.9 25.2001 252.5 24.3001ZM64.3 91.9001L43.6 51.7001L43 51.9001L46.2 60.1001L58.1 94.1001L48.9 97.3001L27 35.1001L39.7 30.6001L60.4 70.8001L61 70.6001L57.8 62.4001L46 28.5001L55.2 25.3001L77 87.5001L64.3 91.9001ZM99.6 76.7001C98.2 79.5001 95.6 81.6001 91.7 82.9001C87.8 84.3001 84.5 84.3001 81.6 83.0001C78.8 81.7001 76.5 78.7001 74.8 73.9001L62 37.1001C60.3 32.3001 60.2 28.5001 61.6 25.7001C63 22.9001 65.6 20.9001 69.5 19.5001C73.4 18.1001 76.7 18.1001 79.5 19.4001C82.3 20.7001 84.6 23.8001 86.2 28.6001L99.1 65.4001C100.9 70.2001 101 74.0001 99.6 76.7001ZM141.6 71.0001C140.5 70.0001 139.4 69.0001 138.3 67.9001C137.8 68.3001 137.2 68.6001 136.5 68.9001C134.6 69.6001 132.9 69.3001 131.4 68.1001C129.9 66.9001 128.7 64.4001 127.7 60.5001C125.2 50.8001 123.2 40.9001 121.5 31.0001C120.8 27.1001 121 24.3001 121.8 22.6001C122.7 20.9001 124.1 20.0001 126.1 19.9001C128.1 19.8001 129.8 20.5001 131.1 22.0001C132.4 23.5001 133.4 26.0001 134 29.6001C135.6 38.8001 137.5 47.9001 139.8 56.9001C140.4 59.1001 140.6 61.0001 140.6 62.7001C141.4 63.5001 142.1 64.2001 142.9 65.0001C142.4 67.0001 142 69.0001 141.6 71.0001ZM153.7 60.4001C153 62.2001 151.8 63.4001 149.9 64.1001C148 64.8001 146.3 64.6001 144.9 63.5001C143.5 62.4001 142.3 60.1001 141.4 56.6001C138.4 44.6001 136 32.4001 134.2 20.1001C135.9 20.0001 137.7 19.9001 139.4 19.8001C141.1 31.7001 143.4 43.5001 146.3 55.1001C146.7 56.6001 147.2 57.3001 147.9 57.1001C148.6 56.9001 148.7 56.0001 148.4 54.5001C145.5 43.0001 143.2 31.4001 141.6 19.7001C143.3 19.6001 145.1 19.5001 146.8 19.4001C148.4 30.7001 150.6 42.0001 153.4 53.0001C154.3 56.2001 154.4 58.6001 153.7 60.4001ZM165.3 58.0001C164.5 55.8001 163.8 53.6001 163.1 51.5001C162 51.8001 160.8 52.2001 159.7 52.5001C160.2 54.8001 160.6 57.2001 161.2 59.5001C159.6 60.1001 158.1 60.6001 156.5 61.2001C153.5 47.1001 151.4 33.1001 150.4 19.1001C153.4 18.9001 156.4 18.8001 159.4 18.6001C162.1 31.6001 165.7 44.2001 170.1 56.3001C168.5 56.9001 166.9 57.4001 165.3 58.0001ZM179 53.1001C177.5 49.9001 176 46.7001 174.6 43.4001C174.2 43.5001 173.7 43.6001 173.3 43.7001C174.1 47.2001 175 50.7001 176 54.1001C174.4 54.7001 172.7 55.3001 171.1 55.9001C167.6 43.6001 165 31.1001 163.2 18.4001C165.7 18.3001 168.1 18.1001 170.6 18.0001C172.7 17.9001 174.1 18.4001 175 19.4001C175.8 20.4001 176.5 22.3001 176.9 25.1001C177.5 28.4001 178.1 31.7001 178.8 35.0001C179.3 37.4001 179.1 39.3001 178.3 40.7001C179.9 44.4001 181.7 48.0001 183.4 51.4001C181.9 52.0001 180.4 52.5001 179 53.1001ZM187.1 50.1001C184.6 41.1001 182.6 32.0001 181.1 22.9001C180 23.0001 178.8 23.1001 177.7 23.3001C177.4 21.5001 177.1 19.6001 176.9 17.8001C180.9 17.6001 185 17.4001 189 17.1001C189.2 18.8001 189.5 20.4001 189.8 22.1001C188.7 22.2001 187.5 22.3001 186.4 22.5001C187.8 31.3001 189.8 39.9001 192.2 48.5001C190.4 48.9001 188.8 49.5001 187.1 50.1001ZM196.4 46.7001C193.7 36.9001 191.6 26.9001 190.1 16.9001C193.2 16.7001 196.2 16.6001 199.3 16.4001C199.5 17.9001 199.7 19.4001 200 20.9001C198.7 21.0001 197.4 21.2001 196.1 21.3001C196.5 23.7001 196.9 26.1001 197.4 28.5001C198.7 28.3001 199.9 28.0001 201.2 27.8001C201.5 29.3001 201.8 30.7001 202.1 32.2001C200.8 32.5001 199.6 32.8001 198.3 33.1001C198.8 35.5001 199.4 38.0001 200 40.4001C201.3 40.0001 202.5 39.6001 203.8 39.2001C204.2 40.7001 204.6 42.1001 205 43.6001C202.1 44.7001 199.3 45.7001 196.4 46.7001ZM214.1 40.3001C212.9 38.2001 211.6 36.0001 210.5 33.7001C210.1 33.8001 209.6 33.9001 209.2 34.0001C209.8 36.5001 210.4 38.9001 211.1 41.3001C209.5 41.9001 207.8 42.5001 206.2 43.1001C203.7 34.3001 201.8 25.3001 200.5 16.3001C203 16.2001 205.4 16.0001 207.9 15.9001C210 15.8001 211.4 16.1001 212.2 16.8001C213 17.5001 213.5 18.8001 213.9 20.7001C214.3 23.0001 214.7 25.2001 215.2 27.5001C215.5 29.1001 215.3 30.5001 214.3 31.6001C215.7 34.1001 217.1 36.5001 218.5 38.8001C217 39.3001 215.6 39.8001 214.1 40.3001Z" fill="#FF5242"/>
<path d="M155.7 26C156.4 32.6 157.3 39.2 158.5 45.9C159.4 45.7 160.3 45.4 161.3 45.2C159.4 38.9 157.8 32.5 156.3 26C156.1 25.9 155.9 26 155.7 26Z" fill="#FF5242"/>
</g>
<defs>
<clipPath id="clip0_410_440">
<rect width="254.3" height="213.5" fill="white"/>
</clipPath>
</defs>
</svg>
