<svg width="267" height="139" viewBox="0 0 267 139" fill="none" xmlns="http://www.w3.org/2000/svg">
<path d="M122.883 100.809L103.36 99.7564C103.073 99.7564 102.881 99.565 102.881 99.2779L102.499 92.4831C102.499 92.196 102.212 91.9089 101.829 92.0046L67.8549 99.6607C67.5678 99.7564 67.2807 99.4693 67.185 99.1822L66.8022 92.4831C66.8022 92.196 66.5151 91.9089 66.1323 92.0046L32.1585 99.6607C31.8714 99.7564 31.5843 99.4693 31.4886 99.1822L31.1058 92.4831C31.1058 92.196 30.8187 91.9089 30.4359 92.0046L0.577187 98.7994C0.00298135 98.8951 0.0986823 99.8521 0.672888 99.8521L19.2389 99.9478C19.526 99.9478 19.7174 100.139 19.7174 100.426L20.1959 108.369C20.1959 108.657 20.483 108.944 20.8658 108.848L55.4138 101.096L55.7966 108.369C55.7966 108.657 56.0837 108.944 56.4665 108.848L91.0146 101.096L91.3974 108.369C91.3974 108.657 91.6845 108.944 92.0673 108.848L122.979 101.862C123.553 101.766 123.457 100.905 122.883 100.809Z" fill="#FF5242"/>
<path d="M122.883 130.764L103.36 129.711C103.073 129.711 102.881 129.52 102.881 129.233L102.499 122.438C102.499 122.151 102.212 121.864 101.829 121.96L67.8549 129.616C67.5678 129.711 67.2807 129.424 67.185 129.137L66.8022 122.438C66.8022 122.151 66.5151 121.864 66.1323 121.96L32.1585 129.616C31.8714 129.711 31.5843 129.424 31.4886 129.137L31.1058 122.438C31.1058 122.151 30.8187 121.864 30.4359 121.96L0.385781 128.754C-0.188425 128.85 -0.092724 129.807 0.481482 129.807L19.0475 129.903C19.3346 129.903 19.526 130.094 19.526 130.381L20.0045 138.325C20.0045 138.612 20.2916 138.899 20.6744 138.803L55.2224 131.051L55.6052 138.325C55.6052 138.612 55.8923 138.899 56.2751 138.803L90.8232 131.051L91.206 138.325C91.206 138.612 91.4931 138.899 91.8759 138.803L122.787 131.817C123.553 131.625 123.457 130.764 122.883 130.764Z" fill="#FF5242"/>
<path d="M194.084 100.809L174.561 99.7564C174.274 99.7564 174.083 99.565 174.083 99.2779L173.7 92.4831C173.7 92.196 173.413 91.9089 173.03 92.0046L139.056 99.6607C138.769 99.7564 138.482 99.4693 138.386 99.1822L138.003 92.4831C138.003 92.196 137.716 91.9089 137.334 92.0046L103.36 99.6607C103.073 99.7564 102.785 99.4693 102.69 99.1822L102.307 92.4831C102.307 92.196 102.02 91.9089 101.637 92.0046L71.8741 98.7994C71.2999 98.8951 71.3956 99.8521 71.9698 99.8521L90.5357 99.9478C90.8228 99.9478 91.0142 100.139 91.0142 100.426L91.4928 108.369C91.4928 108.657 91.7799 108.944 92.1627 108.848L126.711 101.096L127.094 108.369C127.094 108.657 127.381 108.944 127.763 108.848L162.311 101.096L162.694 108.369C162.694 108.657 162.981 108.944 163.364 108.848L194.276 101.862C194.754 101.766 194.754 100.905 194.084 100.809Z" fill="#FF5242"/>
<path d="M265.382 100.809L245.859 99.7564C245.572 99.7564 245.381 99.565 245.381 99.2779L244.998 92.4831C244.998 92.196 244.711 91.9089 244.328 92.0046L210.354 99.6607C210.067 99.7564 209.78 99.4693 209.684 99.1822L209.301 92.4831C209.301 92.196 209.014 91.9089 208.631 92.0046L174.658 99.6607C174.37 99.7564 174.083 99.4693 173.988 99.1822L173.605 92.4831C173.605 92.196 173.318 91.9089 172.935 92.0046L142.885 98.7994C142.311 98.8951 142.406 99.8521 142.981 99.8521L161.546 99.9478C161.834 99.9478 162.025 100.139 162.025 100.426L162.503 108.369C162.503 108.657 162.791 108.944 163.173 108.848L197.721 101.096L198.104 108.369C198.104 108.657 198.391 108.944 198.774 108.848L233.322 101.096L233.705 108.369C233.705 108.657 233.992 108.944 234.375 108.848L265.286 101.862C266.052 101.766 265.956 100.905 265.382 100.809Z" fill="#FF5242"/>
<path d="M194.084 130.764L174.561 129.711C174.274 129.711 174.083 129.52 174.083 129.233L173.7 122.438C173.7 122.151 173.413 121.864 173.03 121.96L139.056 129.616C138.769 129.711 138.482 129.424 138.386 129.137L138.003 122.438C138.003 122.151 137.716 121.864 137.334 121.96L103.36 129.616C103.073 129.711 102.785 129.424 102.69 129.137L102.307 122.438C102.307 122.151 102.02 121.864 101.637 121.96L71.587 128.754C71.0127 128.85 71.1084 129.807 71.6827 129.807L90.2486 129.903C90.5357 129.903 90.7271 130.094 90.7271 130.381L91.2056 138.325C91.2056 138.612 91.4928 138.899 91.8756 138.803L126.424 131.051L126.806 138.325C126.806 138.612 127.093 138.899 127.476 138.803L162.024 131.051L162.407 138.325C162.407 138.612 162.694 138.899 163.077 138.803L193.988 131.817C194.754 131.625 194.754 130.764 194.084 130.764Z" fill="#FF5242"/>
<path d="M265.382 130.764L245.859 129.711C245.572 129.711 245.381 129.52 245.381 129.233L244.998 122.438C244.998 122.151 244.711 121.864 244.328 121.96L210.354 129.616C210.067 129.711 209.78 129.424 209.684 129.137L209.301 122.438C209.301 122.151 209.014 121.864 208.631 121.96L174.658 129.616C174.37 129.711 174.083 129.424 173.988 129.137L173.605 122.438C173.605 122.151 173.318 121.864 172.935 121.96L142.885 128.754C142.311 128.85 142.406 129.807 142.981 129.807L161.546 129.903C161.834 129.903 162.025 130.094 162.025 130.381L162.503 138.325C162.503 138.612 162.791 138.899 163.173 138.803L197.721 131.051L198.104 138.325C198.104 138.612 198.391 138.899 198.774 138.803L233.322 131.051L233.705 138.325C233.705 138.612 233.992 138.899 234.375 138.803L265.286 131.817C266.052 131.625 265.956 130.764 265.382 130.764Z" fill="#FF5242"/>
<path d="M143.172 69.898L162.695 70.9507C162.982 70.9507 163.173 71.1421 163.173 71.4292L163.556 78.224C163.556 78.5111 163.843 78.7982 164.226 78.7025L198.2 71.0464C198.487 70.9507 198.774 71.2378 198.87 71.5249L199.253 78.224C199.253 78.5111 199.54 78.7982 199.923 78.7025L233.896 71.0464C234.183 70.9507 234.471 71.2378 234.566 71.5249L234.949 78.224C234.949 78.5111 235.236 78.7982 235.619 78.7025L265.669 71.9077C266.243 71.812 266.148 70.855 265.573 70.855L247.007 70.7593C246.72 70.7593 246.529 70.5679 246.529 70.2808L246.05 62.3376C246.05 62.0505 245.763 61.7634 245.38 61.8591L210.832 69.6109L210.45 62.3376C210.45 62.0505 210.163 61.7634 209.78 61.8591L175.232 69.6109L174.849 62.3376C174.849 62.0505 174.562 61.7634 174.179 61.8591L143.268 68.8453C142.406 69.0367 142.502 69.898 143.172 69.898Z" fill="#FF5242"/>
<path d="M143.172 40.0396L162.695 41.0923C162.982 41.0923 163.173 41.2837 163.173 41.5708L163.556 48.3656C163.556 48.6527 163.843 48.9398 164.226 48.8441L198.2 41.188C198.487 41.0923 198.774 41.3794 198.87 41.6665L199.253 48.3656C199.253 48.6527 199.54 48.9398 199.923 48.8441L233.896 41.188C234.183 41.0923 234.471 41.3794 234.566 41.6665L234.949 48.3656C234.949 48.6527 235.236 48.9398 235.619 48.8441L265.669 42.0493C266.243 41.9536 266.148 40.9966 265.573 40.9966L247.007 40.9009C246.72 40.9009 246.529 40.7095 246.529 40.4224L246.05 32.4792C246.05 32.1921 245.763 31.905 245.38 32.0007L210.832 39.7525L210.45 32.4792C210.45 32.1921 210.163 31.905 209.78 32.0007L175.232 39.7525L174.849 32.4792C174.849 32.1921 174.562 31.905 174.179 32.0007L143.268 38.9869C142.406 39.1783 142.502 40.0396 143.172 40.0396Z" fill="#FF5242"/>
<path d="M143.172 8.26663L162.695 9.31934C162.982 9.31934 163.173 9.51075 163.173 9.79785L163.556 16.5926C163.556 16.8797 163.843 17.1668 164.226 17.0711L198.2 9.41505C198.487 9.31934 198.774 9.60645 198.87 9.89355L199.253 16.5926C199.253 16.8797 199.54 17.1668 199.923 17.0711L233.896 9.41505C234.183 9.31934 234.471 9.60645 234.566 9.89355L234.949 16.5926C234.949 16.8797 235.236 17.1668 235.619 17.0711L265.669 10.2764C266.243 10.1807 266.148 9.22364 265.573 9.22364L247.007 9.12794C246.72 9.12794 246.529 8.93654 246.529 8.64944L246.05 0.706261C246.05 0.419158 245.763 0.132055 245.38 0.227756L210.832 7.97953L210.45 0.706261C210.45 0.419158 210.163 0.132055 209.78 0.227756L175.232 7.97953L174.849 0.706261C174.849 0.419158 174.562 0.132055 174.179 0.227756L143.268 7.21392C142.406 7.30963 142.502 8.17093 143.172 8.26663Z" fill="#FF5242"/>
<path d="M71.7788 69.898L91.3018 70.9507C91.5889 70.9507 91.7803 71.1421 91.7803 71.4292L92.1631 78.224C92.1631 78.5111 92.4502 78.7982 92.833 78.7025L126.807 71.0464C127.094 70.9507 127.381 71.2378 127.477 71.5249L127.86 78.224C127.86 78.5111 128.147 78.7982 128.529 78.7025L162.503 71.0464C162.79 70.9507 163.077 71.2378 163.173 71.5249L163.556 78.224C163.556 78.5111 163.843 78.7982 164.226 78.7025L194.276 71.9077C194.85 71.812 194.754 70.855 194.18 70.855L175.614 70.7593C175.327 70.7593 175.136 70.5679 175.136 70.2808L174.657 62.3376C174.657 62.0505 174.37 61.7634 173.987 61.8591L139.439 69.6109L139.057 62.3376C139.057 62.0505 138.769 61.7634 138.387 61.8591L103.839 69.6109L103.456 62.3376C103.456 62.0505 103.169 61.7634 102.786 61.8591L71.8745 68.8453C71.1089 69.0367 71.2046 69.898 71.7788 69.898Z" fill="#FF5242"/>
<path d="M71.7788 40.0396L91.3018 41.0923C91.5889 41.0923 91.7803 41.2837 91.7803 41.5708L92.1631 48.3656C92.1631 48.6527 92.4502 48.9398 92.833 48.8441L126.807 41.188C127.094 41.0923 127.381 41.3794 127.477 41.6665L127.86 48.3656C127.86 48.6527 128.147 48.9398 128.529 48.8441L162.503 41.188C162.79 41.0923 163.077 41.3794 163.173 41.6665L163.556 48.3656C163.556 48.6527 163.843 48.9398 164.226 48.8441L194.276 42.0493C194.85 41.9536 194.754 40.9966 194.18 40.9966L175.614 40.9009C175.327 40.9009 175.136 40.7095 175.136 40.4224L174.657 32.4792C174.657 32.1921 174.37 31.905 173.987 32.0007L139.439 39.7525L139.057 32.4792C139.057 32.1921 138.769 31.905 138.387 32.0007L103.839 39.7525L103.456 32.4792C103.456 32.1921 103.169 31.905 102.786 32.0007L71.8745 38.9869C71.1089 39.1783 71.2046 40.0396 71.7788 40.0396Z" fill="#FF5242"/>
<path d="M71.7784 8.26663L91.3013 9.31934C91.5884 9.31934 91.7799 9.51075 91.7799 9.79785L92.1627 16.5926C92.1627 16.8797 92.4498 17.1668 92.8326 17.0711L126.806 9.41505C127.093 9.31934 127.381 9.60645 127.476 9.89355L127.859 16.5926C127.859 16.8797 128.146 17.1668 128.529 17.0711L162.503 9.41505C162.79 9.31934 163.077 9.60645 163.173 9.89355L163.556 16.5926C163.556 16.8797 163.843 17.1668 164.225 17.0711L194.276 10.2764C194.85 10.1807 194.754 9.22364 194.18 9.22364L175.614 9.12794C175.327 9.12794 175.135 8.93654 175.135 8.64944L174.657 0.706261C174.657 0.419158 174.37 0.132055 173.987 0.227756L139.439 7.97953L139.056 0.706261C139.056 0.419158 138.769 0.132055 138.386 0.227756L103.838 7.97953L103.455 0.706261C103.455 0.419158 103.168 0.132055 102.785 0.227756L71.6827 7.21392C71.1084 7.30963 71.2042 8.17093 71.7784 8.26663Z" fill="#FF5242"/>
<path d="M55.5095 6.25684V11.8075H49.9588V67.1226H11.2956V72.6733H5.74499V50.5664H33.4026V33.9144H22.3013V45.0157H5.74499V11.8075H0.194336V6.25684H22.3013V17.3581H33.4026V6.25684H55.5095Z" fill="#E5E5E5"/>
</svg>
